<svg width="64" height="64" viewBox="0 0 64 64" fill="none" xmlns="http://www.w3.org/2000/svg">
<path opacity="0.5" d="M18.6667 32C26.0305 32 32 26.0305 32 18.6667C32 11.3029 26.0305 5.33333 18.6667 5.33333C11.3029 5.33333 5.33334 11.3029 5.33334 18.6667C5.33334 26.0305 11.3029 32 18.6667 32Z" fill="#FF9610"/>
<path d="M43.4293 53.3333C51.8453 53.3333 58.6667 46.592 58.6667 38.2747C58.6667 31.6827 54.3813 26.08 48.4133 24.04C47.5653 16.5173 41.1067 10.6667 33.2693 10.6667C24.8533 10.6667 18.032 17.408 18.032 25.7253C18.032 27.5653 18.3653 29.3253 18.976 30.9573C18.2467 30.8163 17.5055 30.7449 16.7627 30.744C10.4507 30.7467 5.33334 35.8027 5.33334 42.04C5.33334 48.2773 10.4507 53.3333 16.7627 53.3333H43.4293Z" fill="#FF9610"/>
</svg>
